<svg aria-hidden="true" style="position: absolute; width: 0; height: 0; overflow: hidden;" version="1.1" xmlns="http://www.w3.org/2000/svg" xmlns:xlink="http://www.w3.org/1999/xlink">
<defs>
<symbol id="running" viewBox="0 0 32 32">
<path d="M12.4 12.645l0.501 0.769c-0.141 0.11-0.28 0.218-0.417 0.323l-0.545-0.838-0.838 0.545 0.574 0.882c-0.152 0.102-0.3 0.195-0.447 0.278l-0.589-0.905-0.838 0.545 0.475 0.731c-0.093 0.016-0.185 0.024-0.275 0.024-2 0-2.995 0-2.995 0-1.66 0-3.005 1.35-3.005 3.009 0 2.204 1.798 3.991 4.003 3.991h18.994c1.107 0 2.014-0.9 2.009-1.992 0 0 0.274-9.008-2.005-9.008s-2 1.971-5 1.971c-3 0-2.5-1.971-4-1.971-1.129 0-2.154 0.416-3.091 0.98l-0.49-0.753-0.838 0.545 0.493 0.757c-0.127 0.090-0.253 0.182-0.377 0.275l-0.458-0.705-0.838 0.545zM27.862 15.6c0.076 0.793 0.12 1.611 0.141 2.4h-6.002c-1.917 0-2.5 0-4.52 0.264-0.024-0.149-0.073-0.316-0.158-0.487-0.238-0.476-0.688-0.776-1.322-0.776h-5.5c-0.679 0-1.072-0.262-1.303-0.724-0.046-0.092-0.083-0.186-0.111-0.276 0.247 0 0.546 0 0.914 0 0.286 0 0.567-0.046 0.853-0.136l0.44 0.677 0.838-0.545-0.358-0.551c0.123-0.072 0.249-0.15 0.378-0.234 0.023-0.015 0.045-0.030 0.068-0.045l0.375 0.576 0.838-0.545-0.402-0.618c0.022-0.017 0.044-0.033 0.066-0.050 0.047-0.036 0.189-0.146 0.352-0.272l0.446 0.686 0.838-0.545-0.489-0.751c0.129-0.096 0.254-0.188 0.377-0.275l0.454 0.698 0.838-0.545-0.458-0.704c0.106-0.064 0.21-0.123 0.312-0.179l0.024 0.048c0 0 0.61 0.919 1.106 1.415 1.183 1.183 2.712 1.896 4.604 1.896 1.841 0 3.516-0.493 4.993-1.313 0.385-0.214 1.014-0.646 1.129-0.737 0.107 0.487 0.181 1.041 0.24 1.649zM28.016 18.964c0.001 0.27-0.001 0.534-0.006 0.789-0.002 0.11-0.004 0.186-0.005 0.224 0.002 0.57-0.454 1.022-1.009 1.022h-18.994c-0.889 0-1.689-0.387-2.239-1h7.236c1.409 0 2.391-0.326 4.303-0.656 2.197-0.379 3.562-0.379 4.697-0.379h6.016zM5.169 19c-0.11-0.31-0.169-0.644-0.169-0.991 0-1.109 0.899-2.009 2.005-2.009 0.035 0 0.035 0 0.212 0 0.361 0 0.569 0 0.836 0 0.092 0.343 0.204 0.632 0.25 0.724 0.394 0.789 1.126 1.276 2.197 1.276h5.5c0.241 0 0.353 0.075 0.428 0.224 0.053 0.106 0.072 0.222 0.072 0.276-1.321 0.346-2.326 0.5-3.5 0.5h-7.831zM18 12c0.128 0 0.157 0.018 0.344 0.239-0.013-0.016 0.251 0.305 0.345 0.411 0.778 0.876 1.739 1.322 3.31 1.322 1.522 0 2.406-0.379 3.411-1.218 0.045-0.038 0.114-0.095 0.217-0.183 0.534-0.448 0.796-0.57 1.371-0.57-0.018 0 0.137 0.181 0.331 0.737 0.111 0.317 0.082 0.218 0.082 0.218s-0.3 0.139-0.319 0.153c-0.318 0.24-0.682 0.479-1.087 0.705-1.336 0.742-2.848 1.187-4.507 1.187-1.609 0-2.892-0.599-3.896-1.604-0.319-0.319-0.811-1.001-0.811-1.001l-0.121-0.164c0.45-0.157 0.883-0.231 1.329-0.231z" fill="currentColor"></path>
</symbol>
<symbol id="bowling" viewBox="0 0 32 32">
<path d="M16.5 29v0c-6.904 0-12.5-5.596-12.5-12.5s5.596-12.5 12.5-12.5c6.904 0 12.5 5.596 12.5 12.5s-5.596 12.5-12.5 12.5zM16.5 28c6.351 0 11.5-5.149 11.5-11.5s-5.149-11.5-11.5-11.5c-6.351 0-11.5 5.149-11.5 11.5s5.149 11.5 11.5 11.5v0zM16.5 13c0.828 0 1.5-0.672 1.5-1.5s-0.672-1.5-1.5-1.5c-0.828 0-1.5 0.672-1.5 1.5s0.672 1.5 1.5 1.5v0zM19.5 18c0.828 0 1.5-0.672 1.5-1.5s-0.672-1.5-1.5-1.5c-0.828 0-1.5 0.672-1.5 1.5s0.672 1.5 1.5 1.5v0zM13.5 18c0.828 0 1.5-0.672 1.5-1.5s-0.672-1.5-1.5-1.5c-0.828 0-1.5 0.672-1.5 1.5s0.672 1.5 1.5 1.5v0z" fill="currentColor"></path>
</symbol>
<symbol id="volleyball" viewBox="0 0 32 32">
<path d="M7.787 8.994c-0.101 3.971 1.105 7.99 3.677 11.36-1.422 1.034-2.991 1.827-4.642 2.36 0.062 0.096-0.374-0.599-0.61-1.070-0.776-1.548-1.212-3.296-1.212-5.145 0-2.562 0.838-4.928 2.254-6.839 0.233-0.315 0.603-0.748 0.533-0.667v0zM8.882 7.885v0c-0.13 0.115 0.303-0.271 0.673-0.552 1.078-0.818 2.304-1.45 3.631-1.849 0.267-0.080 0.662-0.178 0.586-0.159-0.327 3.413 0.343 6.953 2.132 10.165-0.988 1.651-2.222 3.069-3.627 4.233-2.667-3.498-3.773-7.736-3.395-11.839zM26.811 11.403c-3.457-2.222-7.679-3.272-12.032-2.707-0.124-1.194-0.116-2.392 0.018-3.571-0.084 0.012 0.42-0.060 0.762-0.087 0.31-0.025 0.624-0.038 0.94-0.038 4.161 0 7.805 2.209 9.824 5.519 0.212 0.347 0.519 0.947 0.487 0.884v0zM27.505 13.153v0c-0.064-0.21 0.060 0.175 0.161 0.587 0.218 0.884 0.333 1.809 0.333 2.76 0 0.594-0.045 1.177-0.132 1.746-0.055 0.36-0.174 0.9-0.155 0.818-2.971-2.482-6.778-3.998-10.938-4.062-0.941-1.691-1.554-3.478-1.857-5.287 4.642-0.601 9.126 0.747 12.587 3.437zM11.325 26.772v0c0.202 0.102-0.18-0.084-0.558-0.301-1.15-0.663-2.174-1.518-3.029-2.523-0.151-0.178-0.354-0.436-0.311-0.381 3.778-1.295 7.132-3.881 9.336-7.565 1.934 0.030 3.788 0.393 5.506 1.034-2.049 4.89-6.162 8.352-10.944 9.736zM12.771 27.382c4.574-1.665 8.445-5.165 10.45-9.956 1.537 0.686 2.95 1.601 4.196 2.701 0.040-0.12-0.064 0.2-0.169 0.473-1.652 4.327-5.841 7.4-10.747 7.4-1.218 0-2.393-0.189-3.495-0.541-0.139-0.044-0.295-0.098-0.234-0.078v0zM29 16.5c0-6.904-5.596-12.5-12.5-12.5s-12.5 5.596-12.5 12.5c0 6.904 5.596 12.5 12.5 12.5s12.5-5.596 12.5-12.5v0z" fill="currentColor"></path>
</symbol>
<symbol id="shuttlecock" viewBox="0 0 32 32">
<path d="M12.043 27.165l1.902-16.165h3.111l1.896 16.118-3.452 2.632-3.457-2.586zM11.052 27.025l-2.993 2.64-1.97-1.998 3.91-16.667h2.938l-1.885 16.025zM19.955 27.090l-1.893-16.090h2.938l3.892 16.667-1.931 1.998-3.005-2.575zM22 11v-2.5c0-3.59-2.91-6.5-6.5-6.5s-6.5 2.91-6.5 6.5v2.5l-4 17 3 3 3.5-3 4 3 4-3 3.5 3 3-3-4-17zM10 10v-1.5c0-3.038 2.462-5.5 5.5-5.5s5.5 2.462 5.5 5.5v1.5h-11z" fill="currentColor"></path>
</symbol>
<symbol id="billiard" viewBox="0 0 32 32">
<path d="M18 16.5c0.607 0.456 1 1.182 1 2 0 1.381-1.119 2.5-2.5 2.5s-2.5-1.119-2.5-2.5c0-0.818 0.393-1.544 1-2-0.607-0.456-1-1.182-1-2 0-1.381 1.119-2.5 2.5-2.5s2.5 1.119 2.5 2.5c0 0.818-0.393 1.544-1 2v0 0zM16.5 29v0c-6.904 0-12.5-5.596-12.5-12.5s5.596-12.5 12.5-12.5c6.904 0 12.5 5.596 12.5 12.5s-5.596 12.5-12.5 12.5zM16.5 28c6.351 0 11.5-5.149 11.5-11.5s-5.149-11.5-11.5-11.5c-6.351 0-11.5 5.149-11.5 11.5s5.149 11.5 11.5 11.5v0zM16.5 23c3.59 0 6.5-2.91 6.5-6.5s-2.91-6.5-6.5-6.5c-3.59 0-6.5 2.91-6.5 6.5s2.91 6.5 6.5 6.5v0zM16.5 20c0.828 0 1.5-0.672 1.5-1.5s-0.672-1.5-1.5-1.5c-0.828 0-1.5 0.672-1.5 1.5s0.672 1.5 1.5 1.5v0zM16.5 16c0.828 0 1.5-0.672 1.5-1.5s-0.672-1.5-1.5-1.5c-0.828 0-1.5 0.672-1.5 1.5s0.672 1.5 1.5 1.5v0z" fill="currentColor"></path>
</symbol>
<symbol id="soccer" viewBox="0 0 32 32">
<path d="M8.816 14.551l3.546 1.505 1.252 4.303-2.464 2.552-4.045 0.222c-1.234-1.745-1.995-3.849-2.094-6.125l3.804-2.457zM8.904 13.502l-1.542-3.986c1.303-1.702 3.070-3.029 5.113-3.792l3.525 2.869v3.814l-3.317 2.7-3.779-1.604zM12.122 23.343l2.263-2.343h4.118l2.351 2.435-1.086 4.095c-1.036 0.306-2.132 0.471-3.267 0.471s-2.232-0.164-3.267-0.471l-1.11-4.186zM21.732 22.904l-2.371-2.456 1.29-4.434 3.5-1.486 3.839 2.479c-0.099 2.276-0.859 4.38-2.094 6.125l-4.164-0.229zM24.113 13.459l-3.826 1.624-3.287-2.676v-3.814l3.525-2.869c2.043 0.763 3.81 2.090 5.113 3.792l-1.525 3.942zM6.664 10.539l1.298 3.365-2.941 1.903c0.114-1.921 0.7-3.715 1.643-5.268zM12.068 27.115c-1.612-0.674-3.038-1.705-4.18-2.993l3.335-0.18 0.845 3.173zM20.932 27.115l0.845-3.173 3.335 0.18c-1.141 1.289-2.567 2.319-4.18 2.993zM26.336 10.539c0.943 1.553 1.529 3.347 1.643 5.268l-2.941-1.903 1.298-3.365zM19.377 5.363l-2.877 2.337-2.877-2.337c0.919-0.237 1.883-0.363 2.877-0.363s1.957 0.126 2.877 0.363zM16.5 29c6.904 0 12.5-5.596 12.5-12.5s-5.596-12.5-12.5-12.5c-6.904 0-12.5 5.596-12.5 12.5s5.596 12.5 12.5 12.5v0zM16.5 13.3l3.2 2.6-1.3 4.1h-3.8l-1.3-4.1 3.2-2.6z" fill="currentColor"></path>
</symbol>
<symbol id="basketball" viewBox="0 0 32 32">
<path d="M17 5.011c2.81 0.12 5.359 1.249 7.294 3.033v0c-1.94 2.111-3.164 4.892-3.284 7.956h-4.010v-10.989zM16 5.011v10.989h-4.010c-0.121-3.064-1.344-5.845-3.284-7.956v0c1.935-1.784 4.484-2.913 7.294-3.033zM17 27.989v-10.989h4.010c0.121 3.064 1.344 5.845 3.284 7.956v0c-1.935 1.784-4.484 2.913-7.294 3.033zM16 27.989c-2.81-0.12-5.359-1.249-7.294-3.033 1.94-2.111 3.164-4.892 3.284-7.956h4.010v10.989zM25 8.754c1.759 1.929 2.87 4.459 2.989 7.246v0h-5.979c0.119-2.787 1.23-5.317 2.989-7.246v0 0zM25 24.246v0 0c-1.759-1.929-2.87-4.459-2.989-7.246h5.979c-0.119 2.787-1.23 5.317-2.989 7.246zM5.011 16c0.119-2.787 1.23-5.317 2.989-7.246v0c1.759 1.929 2.87 4.459 2.989 7.246h-5.979zM5.011 17h5.979c-0.119 2.787-1.23 5.317-2.989 7.246-1.759-1.929-2.87-4.459-2.989-7.246zM16.5 29c6.904 0 12.5-5.596 12.5-12.5s-5.596-12.5-12.5-12.5c-6.904 0-12.5 5.596-12.5 12.5s5.596 12.5 12.5 12.5v0z" fill="currentColor"></path>
</symbol>
<symbol id="baseball" viewBox="0 0 32 32">
<path d="M8.706 24.956v0c0.274-0.298 0.534-0.61 0.778-0.933l0.736 0.535 0.588-0.809-0.753-0.547c0.496-0.78 0.909-1.619 1.224-2.504l0.93 0.302 0.309-0.951-0.942-0.306c0.236-0.879 0.377-1.797 0.415-2.742h1.010v-1h-1.010c-0.037-0.945-0.179-1.862-0.415-2.742l0.942-0.306-0.309-0.951-0.93 0.302c-0.315-0.885-0.728-1.724-1.224-2.504l0.753-0.547-0.588-0.809-0.736 0.534c-0.244-0.324-0.504-0.635-0.778-0.933 2.049-1.89 4.787-3.044 7.794-3.044s5.745 1.154 7.794 3.044c-0.274 0.298-0.534 0.61-0.778 0.933l-0.736-0.534-0.588 0.809 0.753 0.547c-0.496 0.78-0.909 1.619-1.224 2.504l-0.93-0.302-0.309 0.951 0.942 0.306c-0.235 0.879-0.377 1.797-0.415 2.742h-1.010v1h1.010c0.037 0.945 0.179 1.862 0.415 2.742l-0.942 0.306 0.309 0.951 0.93-0.302c0.315 0.885 0.728 1.724 1.224 2.504l-0.753 0.547 0.588 0.809 0.736-0.535c0.244 0.324 0.504 0.635 0.778 0.933v0c-2.049 1.89-4.787 3.044-7.794 3.044s-5.745-1.154-7.794-3.044zM8 24.246c-1.864-2.044-3-4.762-3-7.746s1.136-5.702 3-7.746c0.237 0.26 0.462 0.531 0.675 0.811l-0.882 0.641 0.588 0.809 0.863-0.627c0.437 0.695 0.801 1.44 1.083 2.224l-0.971 0.316 0.309 0.951 0.959-0.312c0.205 0.781 0.331 1.595 0.366 2.432h-0.989v1h0.989c-0.036 0.837-0.161 1.651-0.366 2.432v0l-0.959-0.311-0.309 0.951 0.971 0.316c-0.282 0.784-0.646 1.529-1.083 2.224l-0.863-0.627-0.588 0.809 0.882 0.641c-0.213 0.281-0.438 0.552-0.675 0.811v0zM25 24.246v0 0c-0.237-0.26-0.462-0.531-0.675-0.811l0.882-0.641-0.588-0.809-0.863 0.627c-0.437-0.695-0.801-1.44-1.083-2.224l0.971-0.316-0.309-0.951-0.959 0.311c-0.205-0.781-0.331-1.595-0.366-2.432h0.989v-1h-0.989c0.036-0.837 0.161-1.651 0.366-2.432l0.959 0.312 0.309-0.951-0.971-0.316c0.282-0.784 0.646-1.529 1.083-2.224l0.863 0.627 0.588-0.809-0.882-0.641c0.213-0.281 0.438-0.552 0.675-0.811 1.864 2.044 3 4.762 3 7.746s-1.136 5.702-3 7.746zM16.5 29c6.904 0 12.5-5.596 12.5-12.5s-5.596-12.5-12.5-12.5c-6.904 0-12.5 5.596-12.5 12.5s5.596 12.5 12.5 12.5v0z" fill="currentColor"></path>
</symbol>
<symbol id="football" viewBox="0 0 32 32">
<path d="M20 17h-1v2h-1v-2h-1v2h-1v-2h-1v2h-1v-2h-1v2h-1v-2h-2v-1h2v-2h1v2h1v-2h1v2h1v-2h1v2h1v-2h1v2h1v-2h1v2h2v1h-2v2h-1v-2zM16.5 23v0c-3.135 0-5.63-0.884-7.531-2v-9c1.901-1.116 4.397-2 7.531-2s5.63 0.884 7.531 2v9c-1.901 1.116-4.397 2-7.531 2zM8 20.379c-2.587-1.805-3.8-3.879-3.8-3.879s1.213-2.074 3.8-3.879v7.758zM25 20.379v-7.758c2.587 1.805 3.8 3.879 3.8 3.879s-1.213 2.074-3.8 3.879zM3 16.5c0 0 4 7.5 13.5 7.5s13.5-7.5 13.5-7.5c0 0-4-7.5-13.5-7.5s-13.5 7.5-13.5 7.5v0z" fill="currentColor"></path>
</symbol>
<symbol id="twitter" viewBox="0 0 15 15">
<path d="M14.478 1.5l.5-.033a.5.5 0 00-.871-.301l.371.334zm-.498 2.959a.5.5 0 10-1 0h1zm-6.49.082h-.5.5zm0 .959h.5-.5zm-6.99 7V12a.5.5 0 00-.278.916L.5 12.5zm.998-11l.469-.175a.5.5 0 00-.916-.048l.447.223zm3.994 9l.354.353a.5.5 0 00-.195-.827l-.159.474zm7.224-8.027l-.37.336.18.199.265-.04-.075-.495zm1.264-.94c.051.778.003 1.25-.123 1.606-.122.345-.336.629-.723 1l.692.722c.438-.42.776-.832.974-1.388.193-.546.232-1.178.177-2.006l-.998.066zm0 3.654V4.46h-1v.728h1zm-6.99-.646V5.5h1v-.959h-1zm0 .959V6h1v-.5h-1zM10.525 1a3.539 3.539 0 00-3.537 3.541h1A2.539 2.539 0 0110.526 2V1zm2.454 4.187C12.98 9.503 9.487 13 5.18 13v1c4.86 0 8.8-3.946 8.8-8.813h-1zM1.03 1.675C1.574 3.127 3.614 6 7.49 6V5C4.174 5 2.421 2.54 1.966 1.325l-.937.35zm.021-.398C.004 3.373-.157 5.407.604 7.139c.759 1.727 2.392 3.055 4.73 3.835l.317-.948c-2.155-.72-3.518-1.892-4.132-3.29-.612-1.393-.523-3.11.427-5.013l-.895-.446zm4.087 8.87C4.536 10.75 2.726 12 .5 12v1c2.566 0 4.617-1.416 5.346-2.147l-.708-.706zm7.949-8.009A3.445 3.445 0 0010.526 1v1c.721 0 1.37.311 1.82.809l.74-.671zm-.296.83a3.513 3.513 0 002.06-1.134l-.744-.668a2.514 2.514 0 01-1.466.813l.15.989zM.222 12.916C1.863 14.01 3.583 14 5.18 14v-1c-1.63 0-3.048-.011-4.402-.916l-.556.832z" fill="currentColor"></path>
</symbol>
<symbol id="facebook" viewBox="0 0 15 15"><path d="M7.5 14.5a7 7 0 110-14 7 7 0 010 14zm0 0v-8a2 2 0 012-2h.5m-5 4h5" stroke="currentColor" fill="transparent"></path>
</symbol>
<symbol id="youtube" viewBox="0 0 15 15"><path d="M1.61 12.738l-.104.489.105-.489zm11.78 0l.104.489-.105-.489zm0-10.476l.104-.489-.105.489zm-11.78 0l.106.489-.105-.489zM6.5 5.5l.277-.416A.5.5 0 006 5.5h.5zm0 4H6a.5.5 0 00.777.416L6.5 9.5zm3-2l.277.416a.5.5 0 000-.832L9.5 7.5zM0 3.636v7.728h1V3.636H0zm15 7.728V3.636h-1v7.728h1zM1.506 13.227c3.951.847 8.037.847 11.988 0l-.21-.978a27.605 27.605 0 01-11.568 0l-.21.978zM13.494 1.773a28.606 28.606 0 00-11.988 0l.21.978a27.607 27.607 0 0111.568 0l.21-.978zM15 3.636c0-.898-.628-1.675-1.506-1.863l-.21.978c.418.09.716.458.716.885h1zm-1 7.728a.905.905 0 01-.716.885l.21.978A1.905 1.905 0 0015 11.364h-1zm-14 0c0 .898.628 1.675 1.506 1.863l.21-.978A.905.905 0 011 11.364H0zm1-7.728c0-.427.298-.796.716-.885l-.21-.978A1.905 1.905 0 000 3.636h1zM6 5.5v4h1v-4H6zm.777 4.416l3-2-.554-.832-3 2 .554.832zm3-2.832l-3-2-.554.832 3 2 .554-.832z" fill="currentColor"></path></symbol>
<symbol id="bitcoin" viewBox="0 0 15 15"><path d="M3.5 1.5h5a3 3 0 110 6h-5m0-6v6m0-6H2m1.5 0V0m0 7.5h6a3 3 0 110 6h-6m0-6v6m0-6H2m1.5 6H2m1.5 0V15m4-15v1.5m0 12V15" stroke="currentColor" fill="transparent"></path></symbol>
<symbol id="instagram" viewBox="0 0 15 15"><path d="M11 3.5h1M4.5.5h6a4 4 0 014 4v6a4 4 0 01-4 4h-6a4 4 0 01-4-4v-6a4 4 0 014-4zm3 10a3 3 0 110-6 3 3 0 010 6z" stroke="currentColor" fill="transparent"></path></symbol>
</defs>
<symbol id="down" viewBox="0 0 15 15"><path d="M4.5 6.5l3 3 3-3" stroke="currentColor" stroke-linecap="square"></path></symbol>
</svg>
